<svg width="40" height="40" viewBox="0 0 40 40" fill="none" xmlns="http://www.w3.org/2000/svg">
<path d="M20 36.6668C10.7953 36.6668 3.33334 29.2048 3.33334 20.0002C3.33334 10.7954 10.7953 3.3335 20 3.3335C29.2047 3.3335 36.6667 10.7954 36.6667 20.0002C36.6667 29.2048 29.2047 36.6668 20 36.6668ZM20 33.3335C27.3638 33.3335 33.3333 27.364 33.3333 20.0002C33.3333 12.6364 27.3638 6.66683 20 6.66683C12.6362 6.66683 6.66668 12.6364 6.66668 20.0002C6.66668 27.364 12.6362 33.3335 20 33.3335ZM13.3333 21.6668H26.6667C26.6667 25.3487 23.6818 28.3335 20 28.3335C16.3181 28.3335 13.3333 25.3487 13.3333 21.6668ZM13.3333 18.3335C11.9526 18.3335 10.8333 17.2142 10.8333 15.8335C10.8333 14.4528 11.9526 13.3335 13.3333 13.3335C14.7141 13.3335 15.8333 14.4528 15.8333 15.8335C15.8333 17.2142 14.7141 18.3335 13.3333 18.3335ZM26.6667 18.3335C25.286 18.3335 24.1667 17.2142 24.1667 15.8335C24.1667 14.4528 25.286 13.3335 26.6667 13.3335C28.0473 13.3335 29.1667 14.4528 29.1667 15.8335C29.1667 17.2142 28.0473 18.3335 26.6667 18.3335Z" fill="black"/>
</svg>
