<svg width="40" height="40" viewBox="0 0 40 40" fill="none" xmlns="http://www.w3.org/2000/svg">
<path d="M28.2228 14.9417C27.3767 8.39286 21.7792 3.3335 15 3.3335C7.63619 3.3335 1.66666 9.30303 1.66666 16.6668C1.66666 19.8208 2.76177 22.719 4.59249 25.002C5.93917 26.6813 6.66721 28.5422 6.66707 30.5103L6.66666 36.6668H21.6667L21.6683 31.6668H25C26.841 31.6668 28.3333 30.1745 28.3333 28.3335V23.4518L31.5988 22.053C32.1708 21.808 32.2207 21.228 31.9737 20.8397L28.2228 14.9417ZM4.99999 16.6668C4.99999 11.144 9.47714 6.66683 15 6.66683C20.0405 6.66683 24.2775 10.4192 24.9168 15.3688L25.012 16.1045L27.5828 20.147L25 21.2533V28.3335H18.3362L18.3345 33.3335H10.0002L10.0004 30.5107C10.0006 27.7788 9.01607 25.1902 7.19296 22.9167C5.78029 21.155 4.99999 18.975 4.99999 16.6668ZM35.2558 30.1708L32.4822 28.3217C34.0727 25.9405 35 23.0787 35 20.0003C35 16.9218 34.0727 14.06 32.4822 11.6789L35.2558 9.82968C37.2 12.7399 38.3333 16.2377 38.3333 20.0003C38.3333 23.7628 37.2 27.2605 35.2558 30.1708Z" fill="black"/>
</svg>
