<svg width="45" height="45" viewBox="0 0 45 45" fill="none" xmlns="http://www.w3.org/2000/svg">
<path d="M33.75 18.75C33.75 12.5368 28.7132 7.5 22.5 7.5C16.2868 7.5 11.25 12.5368 11.25 18.75V33.75H33.75V18.75ZM37.5 35.0001L38.25 36C38.5607 36.4142 38.4767 37.0018 38.0625 37.3125C37.9003 37.4342 37.7029 37.5 37.5 37.5H7.5C6.98224 37.5 6.5625 37.0802 6.5625 36.5625C6.5625 36.3596 6.62829 36.1622 6.75 36L7.5 35.0001V18.75C7.5 10.4657 14.2157 3.75 22.5 3.75C30.7843 3.75 37.5 10.4657 37.5 18.75V35.0001ZM17.8125 39.375H27.1875C27.1875 41.9638 25.0888 44.0625 22.5 44.0625C19.9112 44.0625 17.8125 41.9638 17.8125 39.375Z" fill="black"/>
</svg>
