<svg width="45" height="45" viewBox="0 0 45 45" fill="none" xmlns="http://www.w3.org/2000/svg">
<path d="M7.5 41.25C7.5 32.9657 14.2157 26.25 22.5 26.25C30.7843 26.25 37.5 32.9657 37.5 41.25H7.5ZM24.375 30.1556V37.5H33.1099C31.7668 33.7003 28.4408 30.8376 24.375 30.1556ZM20.625 37.5V30.1556C16.5593 30.8376 13.2331 33.7003 11.8901 37.5H20.625ZM22.5 24.375C16.2844 24.375 11.25 19.3406 11.25 13.125C11.25 6.90937 16.2844 1.875 22.5 1.875C28.7156 1.875 33.75 6.90937 33.75 13.125C33.75 19.3406 28.7156 24.375 22.5 24.375ZM22.5 20.625C26.6445 20.625 30 17.2696 30 13.125C30 8.98044 26.6445 5.625 22.5 5.625C18.3554 5.625 15 8.98044 15 13.125C15 17.2696 18.3554 20.625 22.5 20.625Z" fill="black"/>
</svg>
