<svg width="40" height="40" viewBox="0 0 40 40" fill="none" xmlns="http://www.w3.org/2000/svg">
<path d="M15 6.66683C16.841 6.66683 18.3333 8.15921 18.3333 10.0002V21.3787C16.843 20.229 14.9434 19.551 12.774 19.1895L12.226 22.4775C14.527 22.861 15.9957 23.5882 16.9003 24.5682C17.7833 25.5247 18.3333 26.9452 18.3333 29.1668C18.3333 31.468 16.4679 33.3335 14.1667 33.3335C11.8655 33.3335 10 31.468 10 29.1668V28.5823C10.7168 28.8212 11.4606 29.0167 12.226 29.1442L12.774 25.8562C11.5358 25.6498 10.292 25.1908 9.04849 24.6C7.63596 23.929 6.66668 22.4985 6.66668 20.8335C6.66668 19.4423 7.01269 18.3477 7.59791 17.543C8.17403 16.7508 9.06984 16.1173 10.4042 15.7837L11.6667 15.4681V10.0002C11.6667 8.15921 13.1591 6.66683 15 6.66683ZM20 5.59046C18.7785 4.20643 16.9912 3.3335 15 3.3335C11.3181 3.3335 8.33334 6.31826 8.33334 10.0002V12.9572C6.91493 13.5276 5.75239 14.4132 4.90211 15.5824C3.82066 17.0693 3.33334 18.8913 3.33334 20.8335C3.33334 23.4422 4.65943 25.728 6.66668 27.0705V29.1668C6.66668 33.309 10.0245 36.6668 14.1667 36.6668C16.5227 36.6668 18.625 35.5805 20 33.8813C21.375 35.5805 23.4773 36.6668 25.8333 36.6668C29.9755 36.6668 33.3333 33.309 33.3333 29.1668V27.0705C35.3407 25.728 36.6667 23.4422 36.6667 20.8335C36.6667 18.8913 36.1793 17.0693 35.0978 15.5824C34.2477 14.4132 33.0852 13.5276 31.6667 12.9572V10.0002C31.6667 6.31826 28.6818 3.3335 25 3.3335C23.0088 3.3335 21.2215 4.20643 20 5.59046ZM30 28.5823V29.1668C30 31.468 28.1345 33.3335 25.8333 33.3335C23.5322 33.3335 21.6667 31.468 21.6667 29.1668C21.6667 26.9452 22.2167 25.5247 23.0997 24.5682C24.0043 23.5882 25.473 22.861 27.774 22.4775L27.226 19.1895C25.0567 19.551 23.157 20.229 21.6667 21.3787V10.0002C21.6667 8.15921 23.159 6.66683 25 6.66683C26.841 6.66683 28.3333 8.15921 28.3333 10.0002V15.4681L29.5958 15.7837C30.9302 16.1173 31.826 16.7508 32.4022 17.543C32.9873 18.3477 33.3333 19.4423 33.3333 20.8335C33.3333 22.4985 32.364 23.929 30.9515 24.6C29.708 25.1908 28.4642 25.6498 27.226 25.8562L27.774 29.1442C28.5395 29.0167 29.2832 28.8212 30 28.5823Z" fill="black"/>
</svg>
