<svg width="40" height="40" viewBox="0 0 40 40" fill="none" xmlns="http://www.w3.org/2000/svg">
<path d="M30.6072 18.2985C33.2107 20.902 33.2107 25.123 30.6072 27.7265L21.1792 37.1547C20.5283 37.8055 19.473 37.8055 18.8222 37.1547L9.39403 27.7265C6.79053 25.123 6.79053 20.902 9.39403 18.2985C11.9975 15.695 16.2186 15.695 18.8222 18.2985L19.9995 19.4758L21.1792 18.2985C23.7827 15.695 28.0037 15.695 30.6072 18.2985ZM11.751 20.6555C10.4493 21.9572 10.4493 24.0678 11.751 25.3695L20.0007 33.6192L28.2502 25.3695C29.552 24.0678 29.552 21.9572 28.2502 20.6555C26.9485 19.3537 24.8378 19.3537 23.5338 20.6578L19.9972 24.1875L16.4651 20.6555C15.1633 19.3537 13.0528 19.3537 11.751 20.6555ZM20.0007 1.6665C23.6825 1.6665 26.6673 4.65127 26.6673 8.33317C26.6673 12.0151 23.6825 14.9998 20.0007 14.9998C16.3187 14.9998 13.334 12.0151 13.334 8.33317C13.334 4.65127 16.3187 1.6665 20.0007 1.6665ZM20.0007 4.99984C18.1597 4.99984 16.6673 6.49222 16.6673 8.33317C16.6673 10.1741 18.1597 11.6665 20.0007 11.6665C21.8415 11.6665 23.334 10.1741 23.334 8.33317C23.334 6.49222 21.8415 4.99984 20.0007 4.99984Z" fill="black"/>
</svg>
