<svg width="25" height="25" viewBox="0 0 25 25" fill="none" xmlns="http://www.w3.org/2000/svg">
<path d="M19.7917 10.4167H20.8333C21.4086 10.4167 21.875 10.883 21.875 11.4583V21.875C21.875 22.4503 21.4086 22.9167 20.8333 22.9167H4.16667C3.59137 22.9167 3.125 22.4503 3.125 21.875V11.4583C3.125 10.883 3.59137 10.4167 4.16667 10.4167H5.20833V9.375C5.20833 5.34792 8.47293 2.08333 12.5 2.08333C16.5271 2.08333 19.7917 5.34792 19.7917 9.375V10.4167ZM5.20833 12.5V20.8333H19.7917V12.5H5.20833ZM11.4583 14.5833H13.5417V18.75H11.4583V14.5833ZM17.7083 10.4167V9.375C17.7083 6.49852 15.3765 4.16666 12.5 4.16666C9.62352 4.16666 7.29167 6.49852 7.29167 9.375V10.4167H17.7083Z" fill="white"/>
</svg>
