<svg width="25" height="25" viewBox="0 0 25 25" fill="none" xmlns="http://www.w3.org/2000/svg">
<path d="M4.16666 22.9167C4.16666 18.3143 7.89762 14.5833 12.5 14.5833C17.1024 14.5833 20.8333 18.3143 20.8333 22.9167H18.75C18.75 19.4649 15.9518 16.6667 12.5 16.6667C9.04822 16.6667 6.25 19.4649 6.25 22.9167H4.16666ZM12.5 13.5417C9.04687 13.5417 6.25 10.7448 6.25 7.29166C6.25 3.83854 9.04687 1.04166 12.5 1.04166C15.9531 1.04166 18.75 3.83854 18.75 7.29166C18.75 10.7448 15.9531 13.5417 12.5 13.5417ZM12.5 11.4583C14.8021 11.4583 16.6667 9.59375 16.6667 7.29166C16.6667 4.98958 14.8021 3.125 12.5 3.125C10.1979 3.125 8.33333 4.98958 8.33333 7.29166C8.33333 9.59375 10.1979 11.4583 12.5 11.4583Z" fill="white"/>
</svg>
