<svg width="25" height="25" viewBox="0 0 25 25" fill="none" xmlns="http://www.w3.org/2000/svg">
<path d="M18.75 8.33332H20.8333C21.4086 8.33332 21.875 8.7997 21.875 9.37499V21.875C21.875 22.4503 21.4086 22.9167 20.8333 22.9167H4.16667C3.59137 22.9167 3.125 22.4503 3.125 21.875V9.37499C3.125 8.7997 3.59137 8.33332 4.16667 8.33332H6.25V7.29166C6.25 3.83988 9.04822 1.04166 12.5 1.04166C15.9518 1.04166 18.75 3.83988 18.75 7.29166V8.33332ZM5.20833 10.4167V20.8333H19.7917V10.4167H5.20833ZM11.4583 14.5833H13.5417V16.6667H11.4583V14.5833ZM7.29167 14.5833H9.375V16.6667H7.29167V14.5833ZM15.625 14.5833H17.7083V16.6667H15.625V14.5833ZM16.6667 8.33332V7.29166C16.6667 4.99047 14.8011 3.12499 12.5 3.12499C10.1988 3.12499 8.33333 4.99047 8.33333 7.29166V8.33332H16.6667Z" fill="white"/>
</svg>
